<svg width="311" height="243" viewBox="0 0 311 243" fill="none" xmlns="http://www.w3.org/2000/svg">
<path opacity="0.1" fill-rule="evenodd" clip-rule="evenodd" d="M209.385 3.96429C227.179 -1.78851 247.709 -1.67571 264.488 6.92529C303.235 26.8345 320.014 78.1585 304.419 132.528C297.425 156.921 285.102 180.609 259.045 204.495C232.988 228.408 196.836 242.508 180.085 242.508C178.676 242.53 177.275 242.274 175.965 241.755C174.654 241.235 173.459 240.462 172.448 239.48C171.437 238.497 170.629 237.325 170.072 236.03C169.515 234.735 169.218 233.343 169.2 231.933C169.2 226.096 174.163 221.358 180.085 221.358C199.233 221.358 216.35 210.924 236.626 195.583C252.136 183.824 264.262 168.793 270.946 155.708C283.777 130.667 284.2 95.3605 263.473 85.9699C258.661 91.4315 252.73 95.7943 246.084 98.7624C239.437 101.73 232.23 103.234 224.951 103.172C191.111 103.172 171.174 75.9589 172.048 51.3121C172.866 27.7651 187.84 10.9861 209.385 3.96429ZM40.185 3.96429C57.9792 -1.78851 78.5088 -1.67571 95.2878 6.92529C134.035 26.8345 150.814 78.1585 135.219 132.528C128.225 156.921 115.902 180.609 89.8452 204.495C63.7884 228.408 27.636 242.508 10.8852 242.508C9.47557 242.53 8.07538 242.274 6.76485 241.755C5.45433 241.235 4.25923 240.462 3.24804 239.48C2.23685 238.497 1.42944 237.325 0.872086 236.03C0.314727 234.735 0.0183725 233.343 0 231.933C0 226.096 4.9632 221.358 10.8852 221.358C30.033 221.358 47.1504 210.924 67.4262 195.583C82.9362 183.824 95.0622 168.793 101.746 155.708C114.577 130.667 115 95.3605 94.2726 85.9699C84.318 96.8551 71.3178 103.172 55.7514 103.172C21.9114 103.172 1.974 75.9589 2.8482 51.3121C3.666 27.7651 18.6402 10.9861 40.185 3.96429Z" fill="black"/>
</svg>
