<svg width="42" height="42" viewBox="0 0 42 42" fill="none" xmlns="http://www.w3.org/2000/svg">
<rect x="41" y="41" width="40" height="40" rx="20" transform="rotate(180 41 41)" fill="#43475E"/>
<rect x="41" y="41" width="40" height="40" rx="20" transform="rotate(180 41 41)" stroke="white" stroke-width="2"/>
<path d="M21.011 16.0199C21.1551 16.0183 21.298 16.0441 21.4305 16.0956C21.563 16.1471 21.6821 16.2231 21.7802 16.3188L31.6703 25.2862C32.1099 25.6848 32.1099 26.3025 31.6703 26.7011C31.2308 27.0996 30.5495 27.0996 30.1099 26.7011L20.989 18.4312L11.8901 26.6812C11.4505 27.0797 10.7692 27.0797 10.3297 26.6812C9.89011 26.2826 9.89011 25.6649 10.3297 25.2663L20.2198 16.2989C20.4396 16.0996 20.7253 16 20.989 16L21.011 16.0199Z" fill="white"/>
</svg>
