<svg width="48" height="48" viewBox="0 0 48 48" fill="none" xmlns="http://www.w3.org/2000/svg">
<path d="M10 16H6V36H42V16H39M31 14C31.7827 14.4526 32.453 15.0763 32.9609 15.8244C33.4687 16.5725 33.8008 17.4257 33.9325 18.3202C34.0642 19.2147 33.9921 20.1274 33.7214 20.9901C33.4508 21.8528 32.9886 22.6432 32.3696 23.3022C31.7505 23.9612 30.9905 24.4718 30.1464 24.7958C29.3023 25.1197 28.3958 25.2487 27.4948 25.1731C26.5938 25.0975 25.7215 24.8193 24.9432 24.3591C24.1649 23.899 23.5006 23.269 23 22.516M26 12C26 13.5913 25.3679 15.1174 24.2426 16.2426C23.1174 17.3679 21.5913 18 20 18C18.4087 18 16.8826 17.3679 15.7574 16.2426C14.6321 15.1174 14 13.5913 14 12C14 10.4087 14.6321 8.88258 15.7574 7.75736C16.8826 6.63214 18.4087 6 20 6C21.5913 6 23.1174 6.63214 24.2426 7.75736C25.3679 8.88258 26 10.4087 26 12Z" stroke="white" stroke-width="4" stroke-linecap="round" stroke-linejoin="round"/>
</svg>
