<svg width="48" height="48" viewBox="0 0 48 48" fill="none" xmlns="http://www.w3.org/2000/svg">
<path d="M11.1431 27.7499C9.73626 25.446 8.99451 22.7976 9.00003 20.0981C9.00003 11.8968 15.7163 5.25 24 5.25C32.2837 5.25 38.9999 11.8968 38.9999 20.0981C39.0054 22.7976 38.2637 25.446 36.8568 27.7499" stroke="white" stroke-width="2.81249" stroke-linecap="round" stroke-linejoin="round"/>
<path d="M27.7506 20.25C26.6013 21.4556 25.3338 22.125 24.0007 22.125M24.0007 22.125C22.6675 22.125 21.4 21.4556 20.2507 20.25M24.0007 22.125V30.5625M29.6256 37.1249L29.3819 38.338C29.1194 39.6637 28.9863 40.3255 28.6881 40.8505C28.2287 41.6597 27.4849 42.2692 26.6013 42.5605C26.0294 42.7499 25.3506 42.7499 24.0007 42.7499C22.6507 42.7499 21.9719 42.7499 21.4 42.5624C20.5161 42.2706 19.7722 41.6604 19.3132 40.8505C19.015 40.3255 18.8819 39.6637 18.6194 38.338L18.3757 37.1249M15.3438 33.5587C15.1713 33.0412 15.0851 32.7806 15.0944 32.5706C15.105 32.3534 15.1783 32.144 15.3055 31.9677C15.4326 31.7913 15.608 31.6556 15.8107 31.5768C16.0057 31.5 16.2794 31.5 16.8232 31.5H31.1781C31.7237 31.5 31.9956 31.5 32.1906 31.575C32.3935 31.6538 32.5692 31.7898 32.6964 31.9666C32.8235 32.1433 32.8966 32.3531 32.9069 32.5706C32.9162 32.7806 32.83 33.0393 32.6575 33.5587C32.3387 34.5168 32.1794 34.9968 31.9337 35.3849C31.42 36.1961 30.6147 36.7793 29.6838 37.0143C29.2375 37.1249 28.735 37.1249 27.7281 37.1249H20.2732C19.2663 37.1249 18.7619 37.1249 18.3176 37.0124C17.3869 36.7778 16.5817 36.1954 16.0676 35.3849C15.8219 34.9968 15.6626 34.5168 15.3438 33.5587Z" stroke="white" stroke-width="2.81249" stroke-linecap="round" stroke-linejoin="round"/>
</svg>
