<svg width="14" height="14" viewBox="0 0 14 14" fill="none" xmlns="http://www.w3.org/2000/svg">
<g clip-path="url(#clip0_521_18)">
<path d="M5.97508 9.52106L3.5 7.0454L4.32483 6.22056L5.97508 7.87023L9.27442 4.57031L10.0998 5.39573L5.97508 9.52106Z" fill="white"/>
<path fill-rule="evenodd" clip-rule="evenodd" d="M0.582031 7.0026C0.582031 3.45885 3.45495 0.585938 6.9987 0.585938C10.5424 0.585938 13.4154 3.45885 13.4154 7.0026C13.4154 10.5464 10.5424 13.4193 6.9987 13.4193C3.45495 13.4193 0.582031 10.5464 0.582031 7.0026ZM6.9987 12.2526C6.30926 12.2526 5.62657 12.1168 4.98961 11.853C4.35265 11.5891 3.77389 11.2024 3.28639 10.7149C2.79888 10.2274 2.41217 9.64865 2.14833 9.01169C1.88449 8.37473 1.7487 7.69204 1.7487 7.0026C1.7487 6.31316 1.88449 5.63048 2.14833 4.99352C2.41217 4.35656 2.79888 3.7778 3.28639 3.29029C3.77389 2.80279 4.35265 2.41607 4.98961 2.15224C5.62657 1.8884 6.30926 1.7526 6.9987 1.7526C8.39108 1.7526 9.72644 2.30573 10.711 3.29029C11.6956 4.27486 12.2487 5.61022 12.2487 7.0026C12.2487 8.39499 11.6956 9.73035 10.711 10.7149C9.72644 11.6995 8.39108 12.2526 6.9987 12.2526Z" fill="white"/>
</g>
<defs>
<clipPath id="clip0_521_18">
<rect width="14" height="14" fill="white"/>
</clipPath>
</defs>
</svg>
