<svg width="44" height="44" viewBox="0 0 44 44" fill="none" xmlns="http://www.w3.org/2000/svg">
<path d="M38.6833 22.9193L41.25 25.5043L29.2783 37.5859L22.9167 31.1693L25.4833 28.5843L29.2783 32.3976L38.6833 22.9193ZM20.1667 7.33594C22.1116 7.33594 23.9769 8.10855 25.3521 9.48382C26.7274 10.8591 27.5 12.7243 27.5 14.6693C27.5 16.6142 26.7274 18.4795 25.3521 19.8547C23.9769 21.23 22.1116 22.0026 20.1667 22.0026C18.2217 22.0026 16.3565 21.23 14.9812 19.8547C13.606 18.4795 12.8333 16.6142 12.8333 14.6693C12.8333 12.7243 13.606 10.8591 14.9812 9.48382C16.3565 8.10855 18.2217 7.33594 20.1667 7.33594ZM20.1667 11.0026C19.1942 11.0026 18.2616 11.3889 17.5739 12.0765C16.8863 12.7642 16.5 13.6968 16.5 14.6693C16.5 15.6417 16.8863 16.5744 17.5739 17.262C18.2616 17.9496 19.1942 18.3359 20.1667 18.3359C21.1391 18.3359 22.0718 17.9496 22.7594 17.262C23.447 16.5744 23.8333 15.6417 23.8333 14.6693C23.8333 13.6968 23.447 12.7642 22.7594 12.0765C22.0718 11.3889 21.1391 11.0026 20.1667 11.0026ZM20.1667 23.8359C21.4133 23.8359 22.9167 24.0009 24.585 24.3126L21.5233 27.3743L20.1667 27.3193C14.7217 27.3193 8.98333 29.9959 8.98333 31.1693V33.1859H20.35L23.8333 36.6693H5.5V31.1693C5.5 26.2926 15.2717 23.8359 20.1667 23.8359Z" fill="white"/>
</svg>
