<svg width="36" height="36" viewBox="0 0 36 36" fill="none" xmlns="http://www.w3.org/2000/svg">
<path d="M29.5938 31.125C26.5556 31.125 23.5538 30.4629 20.5885 29.1388C17.6233 27.8146 14.9253 25.9367 12.4948 23.5052C10.0642 21.0737 8.18687 18.3758 6.86271 15.4115C5.53854 12.4472 4.87597 9.44542 4.875 6.40625C4.875 5.96875 5.02083 5.60417 5.3125 5.3125C5.60417 5.02083 5.96875 4.875 6.40625 4.875H12.3125C12.6528 4.875 12.9566 4.99069 13.224 5.22208C13.4913 5.45347 13.6493 5.72667 13.6979 6.04167L14.6458 11.1458C14.6944 11.5347 14.6823 11.8628 14.6094 12.1302C14.5365 12.3976 14.4028 12.6285 14.2083 12.8229L10.6719 16.3958C11.158 17.2951 11.735 18.1638 12.4029 19.0019C13.0708 19.8399 13.8063 20.6483 14.6094 21.4271C15.3628 22.1806 16.1528 22.8796 16.9792 23.5242C17.8056 24.1688 18.6806 24.7579 19.6042 25.2917L23.0313 21.8646C23.25 21.6458 23.5358 21.482 23.8888 21.3731C24.2417 21.2642 24.5878 21.2336 24.9271 21.2813L29.9583 22.3021C30.2986 22.3993 30.5781 22.5758 30.7969 22.8315C31.0156 23.0872 31.125 23.3725 31.125 23.6875V29.5938C31.125 30.0313 30.9792 30.3958 30.6875 30.6875C30.3958 30.9792 30.0313 31.125 29.5938 31.125Z" fill="white"/>
</svg>
