<svg width="96" height="96" viewBox="0 0 96 96" fill="none" xmlns="http://www.w3.org/2000/svg">
<path d="M80.7045 31.1797C80.6856 30.6581 80.4755 30.1616 80.1142 29.7849C79.7528 29.4082 79.2655 29.1777 78.7451 29.1372C75.2748 28.8148 71.9638 27.5288 69.1857 25.4243C67.1252 23.8622 65.4015 21.9 64.1179 19.6553C62.8344 17.4107 62.0175 14.9299 61.7163 12.3618C61.6759 11.8403 61.4449 11.352 61.0675 10.9899C60.69 10.6278 60.1926 10.4173 59.6699 10.3984H51.3257C51.0536 10.3984 50.7842 10.4526 50.5333 10.5579C50.2824 10.6632 50.055 10.8175 49.8645 11.0118C49.6739 11.206 49.524 11.4363 49.4235 11.6892C49.323 11.942 49.274 12.2124 49.2793 12.4845V62.3199C49.2652 63.8235 48.9446 65.3085 48.3371 66.684C47.7297 68.0596 46.8481 69.2968 45.7463 70.32C44.6445 71.3433 43.3456 72.1312 41.9289 72.6354C40.5123 73.1397 39.0077 73.3497 37.5072 73.2528C35.7932 73.157 34.1246 72.6665 32.6315 71.8195C31.1383 70.9726 29.8611 69.7921 28.8994 68.3702C27.9376 66.9483 27.3174 65.3234 27.0871 63.6223C26.8568 61.9212 27.0227 60.1899 27.5718 58.5634C28.4073 56.157 30.0364 54.1064 32.1915 52.7483C34.3466 51.3902 36.8996 50.8055 39.4309 51.0901C39.7107 51.119 39.9935 51.0887 40.2608 51.001C40.528 50.9134 40.7739 50.7705 40.9822 50.5815C41.1906 50.3926 41.3569 50.1618 41.4701 49.9044C41.5834 49.6469 41.6412 49.3685 41.6397 49.0872V39.322C41.6397 39.322 38.093 39.0726 36.8818 39.0726C33.7781 39.0584 30.7104 39.7369 27.9021 41.0585C25.0939 42.3801 22.6159 44.3116 20.6486 46.7122C18.0328 49.5296 16.168 52.9599 15.2257 56.6872C14.1384 61.083 14.3611 65.7009 15.8663 69.9717C17.3714 74.2425 20.0934 77.9795 23.6966 80.7222C27.819 83.9026 32.8824 85.621 38.0891 85.6068C44.322 85.6331 50.3108 83.1861 54.7418 78.8024C56.9181 76.6669 58.6505 74.1221 59.8394 71.3144C61.0282 68.5067 61.65 65.4916 61.6688 62.4426V34.9797C66.4881 38.6986 72.2941 40.9189 78.3651 41.3645C78.6474 41.3815 78.9301 41.3398 79.1954 41.2421C79.4608 41.1444 79.703 40.9928 79.9068 40.7968C80.1106 40.6008 80.2716 40.3647 80.3796 40.1033C80.4876 39.842 80.5402 39.5611 80.5343 39.2784V31.1836L80.7045 31.1797Z" fill="white"/>
</svg>
