<svg width="24" height="24" viewBox="0 0 24 24" fill="none" xmlns="http://www.w3.org/2000/svg">
<path d="M7.69231 19.7428V16.1785H5.23077C4.90435 16.1785 4.5913 16.0488 4.36048 15.818C4.12967 15.5872 4 15.2741 4 14.9477V6.33233C4 6.00591 4.12967 5.69286 4.36048 5.46205C4.5913 5.23123 4.90435 5.10156 5.23077 5.10156H18.7692C19.0957 5.10156 19.4087 5.23123 19.6395 5.46205C19.8703 5.69286 20 6.00591 20 6.33233V14.9477C20 15.2741 19.8703 15.5872 19.6395 15.818C19.4087 16.0488 19.0957 16.1785 18.7692 16.1785H12L8.21785 19.9606C8.17481 20.0038 8.11994 20.0332 8.06018 20.0451C8.00042 20.057 7.93847 20.0509 7.88218 20.0276C7.82589 20.0042 7.77779 19.9647 7.74399 19.914C7.71019 19.8633 7.6922 19.8037 7.69231 19.7428Z" stroke="white" stroke-width="1.23077"/>
<path d="M7.69141 12.4892H16.3068M7.69141 8.79688H16.3068" stroke="white" stroke-width="1.23077" stroke-linecap="round"/>
</svg>
