<svg width="96" height="96" viewBox="0 0 96 96" fill="none" xmlns="http://www.w3.org/2000/svg">
<path d="M31.7513 8.41406H65.0013C77.668 8.41406 87.9596 18.7057 87.9596 31.3724V64.6224C87.9596 70.7113 85.5408 76.5509 81.2353 80.8564C76.9298 85.1619 71.0902 87.5807 65.0013 87.5807H31.7513C19.0846 87.5807 8.79297 77.2891 8.79297 64.6224V31.3724C8.79297 25.2835 11.2118 19.4439 15.5173 15.1384C19.8228 10.8329 25.6624 8.41406 31.7513 8.41406ZM30.9596 16.3307C27.1803 16.3307 23.5558 17.8321 20.8834 20.5045C18.211 23.1769 16.7096 26.8014 16.7096 30.5807V65.4141C16.7096 73.2911 23.0826 79.6641 30.9596 79.6641H65.793C69.5723 79.6641 73.1968 78.1627 75.8692 75.4903C78.5416 72.8179 80.043 69.1934 80.043 65.4141V30.5807C80.043 22.7036 73.67 16.3307 65.793 16.3307H30.9596ZM69.1576 22.2682C70.4698 22.2682 71.7283 22.7895 72.6563 23.7174C73.5842 24.6454 74.1055 25.9039 74.1055 27.2161C74.1055 28.5284 73.5842 29.7869 72.6563 30.7149C71.7283 31.6428 70.4698 32.1641 69.1576 32.1641C67.8453 32.1641 66.5868 31.6428 65.6588 30.7149C64.7309 29.7869 64.2096 28.5284 64.2096 27.2161C64.2096 25.9039 64.7309 24.6454 65.6588 23.7174C66.5868 22.7895 67.8453 22.2682 69.1576 22.2682ZM48.3763 28.2057C53.6254 28.2057 58.6595 30.2909 62.3711 34.0026C66.0828 37.7142 68.168 42.7483 68.168 47.9974C68.168 53.2465 66.0828 58.2806 62.3711 61.9922C58.6595 65.7039 53.6254 67.7891 48.3763 67.7891C43.1272 67.7891 38.0931 65.7039 34.3815 61.9922C30.6698 58.2806 28.5846 53.2465 28.5846 47.9974C28.5846 42.7483 30.6698 37.7142 34.3815 34.0026C38.0931 30.2909 43.1272 28.2057 48.3763 28.2057ZM48.3763 36.1224C45.2269 36.1224 42.2064 37.3735 39.9794 39.6005C37.7524 41.8275 36.5013 44.8479 36.5013 47.9974C36.5013 51.1468 37.7524 54.1673 39.9794 56.3943C42.2064 58.6213 45.2269 59.8724 48.3763 59.8724C51.5257 59.8724 54.5462 58.6213 56.7732 56.3943C59.0002 54.1673 60.2513 51.1468 60.2513 47.9974C60.2513 44.8479 59.0002 41.8275 56.7732 39.6005C54.5462 37.3735 51.5257 36.1224 48.3763 36.1224Z" fill="white"/>
</svg>
