<svg width="24" height="24" viewBox="0 0 24 24" fill="none" xmlns="http://www.w3.org/2000/svg">
<path d="M17.6007 12.0255C18.2372 12.0255 18.8477 12.2784 19.2978 12.7285C19.7479 13.1786 20.0008 13.7891 20.0008 14.4256V15.2257C20.0008 18.3794 17.0246 21.626 12.0004 21.626C6.97614 21.626 4 18.3794 4 15.2257V14.4256C4 13.7891 4.25287 13.1786 4.70298 12.7285C5.15309 12.2784 5.76357 12.0255 6.40012 12.0255H17.6007ZM17.6007 13.6256H6.40012C6.18793 13.6256 5.98444 13.7099 5.8344 13.8599C5.68437 14.0099 5.60008 14.2134 5.60008 14.4256V15.2257C5.60008 17.5266 7.89139 20.0259 12.0004 20.0259C16.1094 20.0259 18.4007 17.5266 18.4007 15.2257V14.4256C18.4007 14.2134 18.3164 14.0099 18.1664 13.8599C18.0163 13.7099 17.8128 13.6256 17.6007 13.6256ZM12.0004 1.625C13.1674 1.625 14.2866 2.08859 15.1118 2.91379C15.937 3.73899 16.4006 4.85821 16.4006 6.02521C16.4006 7.19222 15.937 8.31144 15.1118 9.13664C14.2866 9.96184 13.1674 10.4254 12.0004 10.4254C10.8334 10.4254 9.71417 9.96184 8.88897 9.13664C8.06377 8.31144 7.60018 7.19222 7.60018 6.02521C7.60018 4.85821 8.06377 3.73899 8.88897 2.91379C9.71417 2.08859 10.8334 1.625 12.0004 1.625ZM12.0004 3.22508C11.2577 3.22508 10.5455 3.52009 10.0204 4.04522C9.49527 4.57035 9.20025 5.28257 9.20025 6.02521C9.20025 6.76786 9.49527 7.48008 10.0204 8.00521C10.5455 8.53034 11.2577 8.82535 12.0004 8.82535C12.743 8.82535 13.4553 8.53034 13.9804 8.00521C14.5055 7.48008 14.8005 6.76786 14.8005 6.02521C14.8005 5.28257 14.5055 4.57035 13.9804 4.04522C13.4553 3.52009 12.743 3.22508 12.0004 3.22508Z" fill="white"/>
</svg>
