<svg width="16" height="8" viewBox="0 0 16 8" fill="none" xmlns="http://www.w3.org/2000/svg">
<path fill-rule="evenodd" clip-rule="evenodd" d="M8.82442 7.70441C8.60564 7.89188 8.30894 7.9972 7.99959 7.9972C7.69023 7.9972 7.39354 7.89188 7.17475 7.70441L0.57492 2.04741C0.463491 1.95517 0.374612 1.84482 0.313468 1.72282C0.252324 1.60081 0.22014 1.46959 0.218794 1.33681C0.217448 1.20404 0.246967 1.07236 0.305628 0.94946C0.364289 0.826563 0.450918 0.714911 0.560459 0.621018C0.670001 0.527125 0.800261 0.452872 0.94364 0.402591C1.08702 0.35231 1.24065 0.327009 1.39555 0.328163C1.55046 0.329317 1.70355 0.356903 1.84589 0.409312C1.98823 0.461721 2.11697 0.537903 2.22459 0.633413L7.99959 5.58341L13.7746 0.633413C13.9946 0.451255 14.2893 0.350461 14.5952 0.352739C14.9011 0.355017 15.1937 0.460186 15.41 0.645594C15.6264 0.831002 15.749 1.08182 15.7517 1.34401C15.7544 1.60621 15.6368 1.85881 15.4243 2.04741L8.82442 7.70441Z" fill="white"/>
</svg>
