<svg width="28" height="35" viewBox="0 0 28 35" fill="none" xmlns="http://www.w3.org/2000/svg">
<path d="M23.253 12.5429L21.6713 16.0419H0.310112L1.60425 12.5429H23.253ZM20.2014 19.2373L18.46 22.8161H0.310112L1.60425 19.2373H20.2014ZM27.4071 3.80352L24.8507 9.26765C24.4247 8.96941 23.9081 8.64455 23.301 8.29305C22.7045 7.93091 22.0175 7.62735 21.2399 7.38237C20.473 7.12673 19.6209 6.99892 18.6836 6.99892C17.2031 6.99892 15.9143 7.37171 14.8172 8.11731C13.7201 8.8629 12.868 10.0239 12.2609 11.6003C11.6644 13.1767 11.3662 15.2004 11.3662 17.6715C11.3662 20.1639 11.6644 22.193 12.2609 23.7588C12.868 25.3139 13.7201 26.4589 14.8172 27.1938C15.9143 27.9181 17.2031 28.2802 18.6836 28.2802C19.6209 28.2802 20.473 28.1578 21.2399 27.9128C22.0068 27.6678 22.6779 27.3749 23.253 27.034C23.8389 26.6932 24.3288 26.379 24.7229 26.0914L27.3112 31.5555C26.1502 32.5141 24.8348 33.2384 23.3649 33.7284C21.895 34.2077 20.3346 34.4474 18.6836 34.4474C15.893 34.4474 13.4219 33.787 11.2703 32.4662C9.1294 31.1348 7.45182 29.2229 6.23757 26.7305C5.02332 24.2274 4.41619 21.2078 4.41619 17.6715C4.41619 14.146 5.02332 11.1263 6.23757 8.61259C7.45182 6.09888 9.1294 4.17632 11.2703 2.84491C13.4219 1.50284 15.893 0.831807 18.6836 0.831807C20.3985 0.831807 21.9855 1.08744 23.4448 1.5987C24.904 2.10997 26.2248 2.84491 27.4071 3.80352Z" fill="white"/>
</svg>
