<svg width="40" height="41" viewBox="0 0 40 41" fill="none" xmlns="http://www.w3.org/2000/svg">
<path d="M21.01 6.73528C20.7033 6.55563 20.3544 6.46094 19.999 6.46094C19.6436 6.46094 19.2946 6.55563 18.988 6.73528L6.96797 13.7753C6.66706 13.9521 6.41767 14.2047 6.24459 14.5078C6.07151 14.8109 5.98076 15.154 5.98137 15.503C5.98198 15.852 6.07391 16.1948 6.24805 16.4973C6.42218 16.7998 6.67244 17.0515 6.97397 17.2273L18.992 24.2313C19.2977 24.4094 19.6451 24.5033 19.999 24.5033C20.3528 24.5033 20.7003 24.4094 21.006 24.2313L33.024 17.2273C33.3257 17.0513 33.5762 16.7992 33.7503 16.4963C33.9244 16.1934 34.0161 15.8502 34.0163 15.5009C34.0165 15.1515 33.9252 14.8082 33.7514 14.5051C33.5777 14.202 33.3275 13.9497 33.026 13.7733L21.01 6.73528ZM18.988 9.05328C19.2944 8.87401 19.643 8.77952 19.998 8.77952C20.353 8.77952 20.7016 8.87401 21.008 9.05328L32.016 15.4993L21.006 21.9173C20.7003 22.0954 20.3528 22.1893 19.999 22.1893C19.6451 22.1893 19.2977 22.0954 18.992 21.9173L7.97997 15.4993L18.988 9.05328ZM6.13997 19.8013L19.016 27.0473C19.3152 27.2155 19.6527 27.3038 19.996 27.3038C20.3392 27.3038 20.6767 27.2155 20.976 27.0473L33.852 19.8013C34.0455 20.2502 34.0679 20.7544 33.915 21.2187C33.7621 21.683 33.4444 22.0753 33.022 22.3213L21.002 29.3253C20.6965 29.5031 20.3494 29.5967 19.996 29.5967C19.6425 29.5967 19.2954 29.5031 18.99 29.3253L6.96996 22.3213C6.54755 22.0753 6.22987 21.683 6.07695 21.2187C5.92402 20.7544 5.94644 20.2502 6.13997 19.8013ZM6.13997 24.7073L19.016 31.9513C19.3152 32.1195 19.6527 32.2078 19.996 32.2078C20.3392 32.2078 20.6767 32.1195 20.976 31.9513L33.852 24.7073C34.0455 25.1562 34.0679 25.6604 33.915 26.1247C33.7621 26.589 33.4444 26.9813 33.022 27.2273L21.002 34.2313C20.6965 34.4091 20.3494 34.5027 19.996 34.5027C19.6425 34.5027 19.2954 34.4091 18.99 34.2313L6.96996 27.2273C6.54755 26.9813 6.22987 26.589 6.07695 26.1247C5.92402 25.6604 5.94644 25.1562 6.13997 24.7073Z" fill="white"/>
</svg>
