<svg width="42" height="40" viewBox="0 0 42 40" fill="none" xmlns="http://www.w3.org/2000/svg">
<path d="M21 23.5C20.013 23.5 19.1829 23.1634 18.5097 22.4903C17.8366 21.8171 17.5 20.987 17.5 20C17.5 19.013 17.8366 18.1829 18.5097 17.5097C19.1829 16.8366 20.013 16.5 21 16.5C21.987 16.5 22.8171 16.8366 23.4903 17.5097C24.1634 18.1829 24.5 19.013 24.5 20C24.5 20.987 24.1634 21.8171 23.4903 22.4903C22.8171 23.1634 21.987 23.5 21 23.5ZM21 21.75C21.4958 21.75 21.9118 21.582 22.2478 21.246C22.5838 20.91 22.7512 20.4947 22.75 20C22.7488 19.5053 22.5808 19.09 22.246 18.754C21.9112 18.418 21.4958 18.25 21 18.25C20.5042 18.25 20.0888 18.418 19.754 18.754C19.4192 19.09 19.2512 19.5053 19.25 20C19.2488 20.4947 19.4168 20.9106 19.754 21.2478C20.0912 21.5849 20.5065 21.7523 21 21.75ZM9.828 34C9.02183 34 8.34925 33.7305 7.81025 33.1915C7.27125 32.6525 7.00117 31.9793 7 31.172V25.25H8.75V31.1738C8.75 31.4421 8.862 31.6888 9.086 31.914C9.31 32.1392 9.55675 32.2512 9.82625 32.25H15.75V34H9.828ZM26.25 34V32.25H32.1738C32.4421 32.25 32.6888 32.138 32.914 31.914C33.1392 31.69 33.2512 31.4427 33.25 31.172V25.25H35V31.1738C35 31.9788 34.7305 32.6508 34.1915 33.1898C33.6525 33.7288 32.9793 33.9988 32.172 34H26.25ZM7 14.75V8.828C7 8.02183 7.27008 7.34925 7.81025 6.81025C8.35042 6.27125 9.023 6.00117 9.828 6H15.75V7.75H9.828C9.5585 7.75 9.31117 7.862 9.086 8.086C8.86083 8.31 8.74883 8.55733 8.75 8.828V14.75H7ZM33.25 14.75V8.828C33.25 8.5585 33.138 8.31117 32.914 8.086C32.69 7.86083 32.4427 7.74883 32.172 7.75H26.25V6H32.1738C32.9788 6 33.6508 6.27008 34.1898 6.81025C34.7288 7.35042 34.9988 8.023 35 8.828V14.75H33.25Z" fill="white"/>
</svg>
