<svg width="35" height="36" viewBox="0 0 35 36" fill="none" xmlns="http://www.w3.org/2000/svg">
<path d="M29.0938 30.8047C26.0556 30.8047 23.0538 30.1426 20.0885 28.8184C17.1233 27.4943 14.4253 25.6164 11.9948 23.1849C9.56424 20.7534 7.68687 18.0555 6.36271 15.0911C5.03854 12.1268 4.37597 9.1251 4.375 6.08594C4.375 5.64844 4.52083 5.28385 4.8125 4.99219C5.10417 4.70052 5.46875 4.55469 5.90625 4.55469H11.8125C12.1528 4.55469 12.4566 4.67038 12.724 4.90177C12.9913 5.13316 13.1493 5.40635 13.1979 5.72135L14.1458 10.8255C14.1944 11.2144 14.1823 11.5425 14.1094 11.8099C14.0365 12.0773 13.9028 12.3082 13.7083 12.5026L10.1719 16.0755C10.658 16.9748 11.235 17.8435 11.9029 18.6816C12.5708 19.5196 13.3063 20.328 14.1094 21.1068C14.8628 21.8602 15.6528 22.5593 16.4792 23.2039C17.3056 23.8484 18.1806 24.4376 19.1042 24.9714L22.5312 21.5443C22.75 21.3255 23.0358 21.1617 23.3888 21.0528C23.7417 20.9439 24.0878 20.9133 24.4271 20.9609L29.4583 21.9818C29.7986 22.079 30.0781 22.2555 30.2969 22.5111C30.5156 22.7668 30.625 23.0522 30.625 23.3672V29.2734C30.625 29.7109 30.4792 30.0755 30.1875 30.3672C29.8958 30.6589 29.5313 30.8047 29.0938 30.8047Z" fill="black"/>
</svg>
