<svg width="37" height="36" viewBox="0 0 37 36" fill="none" xmlns="http://www.w3.org/2000/svg">
<path d="M12.3874 2.94531H24.7609C29.4746 2.94531 33.3045 6.77521 33.3045 11.4889V23.8625C33.3045 26.1284 32.4044 28.3015 30.8022 29.9037C29.1999 31.506 27.0268 32.4061 24.7609 32.4061H12.3874C7.67365 32.4061 3.84375 28.5762 3.84375 23.8625V11.4889C3.84375 9.22303 4.74388 7.04992 6.34612 5.44768C7.94836 3.84544 10.1215 2.94531 12.3874 2.94531ZM12.0928 5.89139C10.6863 5.89139 9.33752 6.45009 8.34302 7.44459C7.34853 8.43908 6.78983 9.7879 6.78983 11.1943V24.1571C6.78983 27.0884 9.16142 29.46 12.0928 29.46H25.0555C26.4619 29.46 27.8108 28.9013 28.8053 27.9068C29.7998 26.9123 30.3585 25.5635 30.3585 24.1571V11.1943C30.3585 8.26298 27.9869 5.89139 25.0555 5.89139H12.0928ZM26.3076 8.10095C26.7959 8.10095 27.2643 8.29494 27.6096 8.64025C27.9549 8.98556 28.1489 9.45391 28.1489 9.94225C28.1489 10.4306 27.9549 10.8989 27.6096 11.2442C27.2643 11.5896 26.7959 11.7835 26.3076 11.7835C25.8193 11.7835 25.3509 11.5896 25.0056 11.2442C24.6603 10.8989 24.4663 10.4306 24.4663 9.94225C24.4663 9.45391 24.6603 8.98556 25.0056 8.64025C25.3509 8.29494 25.8193 8.10095 26.3076 8.10095ZM18.5741 10.3105C20.5275 10.3105 22.4009 11.0865 23.7821 12.4677C25.1634 13.849 25.9393 15.7223 25.9393 17.6757C25.9393 19.6291 25.1634 21.5024 23.7821 22.8837C22.4009 24.2649 20.5275 25.0409 18.5741 25.0409C16.6208 25.0409 14.7474 24.2649 13.3662 22.8837C11.9849 21.5024 11.2089 19.6291 11.2089 17.6757C11.2089 15.7223 11.9849 13.849 13.3662 12.4677C14.7474 11.0865 16.6208 10.3105 18.5741 10.3105ZM18.5741 13.2566C17.4021 13.2566 16.2781 13.7222 15.4494 14.5509C14.6206 15.3797 14.155 16.5037 14.155 17.6757C14.155 18.8477 14.6206 19.9717 15.4494 20.8005C16.2781 21.6292 17.4021 22.0948 18.5741 22.0948C19.7462 22.0948 20.8702 21.6292 21.6989 20.8005C22.5277 19.9717 22.9933 18.8477 22.9933 17.6757C22.9933 16.5037 22.5277 15.3797 21.6989 14.5509C20.8702 13.7222 19.7462 13.2566 18.5741 13.2566Z" fill="black"/>
</svg>
