<svg width="36" height="36" viewBox="0 0 36 36" fill="none" xmlns="http://www.w3.org/2000/svg">
<path d="M29.9868 11.4131C29.9798 11.219 29.9016 11.0343 29.7672 10.8941C29.6327 10.7539 29.4513 10.6681 29.2577 10.6531C27.9663 10.5331 26.7341 10.0545 25.7003 9.27134C24.9335 8.69004 24.292 7.95982 23.8144 7.12451C23.3367 6.28919 23.0327 5.366 22.9207 4.41031C22.9056 4.21626 22.8196 4.03454 22.6792 3.8998C22.5387 3.76505 22.3536 3.6867 22.1591 3.67969H19.0539C18.9527 3.67967 18.8524 3.69984 18.7591 3.73903C18.6657 3.77822 18.5811 3.83564 18.5101 3.90793C18.4392 3.98021 18.3835 4.06591 18.3461 4.16002C18.3087 4.25412 18.2904 4.35474 18.2924 4.45598V23.0015C18.2871 23.5611 18.1678 24.1137 17.9418 24.6256C17.7157 25.1375 17.3877 25.5979 16.9776 25.9787C16.5676 26.3595 16.0842 26.6527 15.557 26.8403C15.0299 27.028 14.47 27.1061 13.9116 27.0701C13.2737 27.0344 12.6528 26.8519 12.0971 26.5367C11.5415 26.2215 11.0662 25.7822 10.7083 25.2531C10.3504 24.7239 10.1196 24.1192 10.0339 23.4862C9.94817 22.8532 10.0099 22.2089 10.2142 21.6036C10.5252 20.7081 11.1314 19.945 11.9334 19.4396C12.7354 18.9342 13.6854 18.7166 14.6274 18.8225C14.7316 18.8333 14.8368 18.822 14.9363 18.7894C15.0357 18.7568 15.1272 18.7036 15.2047 18.6333C15.2823 18.563 15.3442 18.4771 15.3863 18.3813C15.4285 18.2855 15.45 18.1818 15.4494 18.0772V14.4432C15.4494 14.4432 14.1296 14.3504 13.6788 14.3504C12.5238 14.3451 11.3822 14.5976 10.3372 15.0894C9.29211 15.5812 8.36995 16.3 7.63788 17.1933C6.66444 18.2418 5.97045 19.5184 5.61981 20.9054C5.21518 22.5412 5.29804 24.2597 5.85818 25.849C6.41831 27.4384 7.43124 28.829 8.77212 29.8497C10.3062 31.0332 12.1905 31.6727 14.1281 31.6674C16.4476 31.6772 18.6762 30.7666 20.3252 29.1353C21.1351 28.3406 21.7798 27.3936 22.2222 26.3487C22.6646 25.3039 22.896 24.1818 22.903 23.0472V12.8273C24.6964 14.2112 26.857 15.0375 29.1163 15.2033C29.2213 15.2096 29.3265 15.1941 29.4253 15.1577C29.524 15.1214 29.6141 15.065 29.69 14.992C29.7658 14.9191 29.8257 14.8312 29.8659 14.734C29.9061 14.6367 29.9257 14.5322 29.9235 14.427V11.4146L29.9868 11.4131Z" fill="black"/>
</svg>
