<svg width="60" height="51" viewBox="0 0 60 51" fill="none" xmlns="http://www.w3.org/2000/svg">
<rect x="2" y="5.08594" width="55" height="40.8333" rx="8" stroke="white" stroke-width="4"/>
<path d="M4 38.2526C4 39.7555 4.59702 41.1968 5.65973 42.2595C6.72243 43.3222 8.16377 43.9193 9.66667 43.9193H49.3333C50.8362 43.9193 52.2776 43.3222 53.3403 42.2595C54.403 41.1968 55 39.7555 55 38.2526V32.5859H4V38.2526Z" fill="#FFCD05"/>
<path d="M4 19.8359H55V32.5859H4V19.8359Z" fill="#ED1F24"/>
<path d="M49.3333 7.08594H9.66667C8.16377 7.08594 6.72243 7.68296 5.65973 8.74567C4.59702 9.80837 4 11.2497 4 12.7526L4 19.8359H55V12.7526C55 11.2497 54.403 9.80837 53.3403 8.74567C52.2776 7.68296 50.8362 7.08594 49.3333 7.08594Z" fill="#141414"/>
</svg>
