<svg width="59" height="59" viewBox="0 0 59 59" fill="none" xmlns="http://www.w3.org/2000/svg">
<path d="M29.7471 45.6021L29.5013 45.8479L29.2309 45.6021C17.5538 35.0067 9.83464 28.0004 9.83464 20.8958C9.83464 15.9792 13.5221 12.2917 18.4388 12.2917C22.2246 12.2917 25.9121 14.75 27.2151 18.0933H31.7876C33.0905 14.75 36.778 12.2917 40.5638 12.2917C45.4805 12.2917 49.168 15.9792 49.168 20.8958C49.168 28.0004 41.4488 35.0067 29.7471 45.6021ZM40.5638 7.375C36.2863 7.375 32.1809 9.36625 29.5013 12.4883C26.8217 9.36625 22.7163 7.375 18.4388 7.375C10.8671 7.375 4.91797 13.2996 4.91797 20.8958C4.91797 30.1637 13.2763 37.76 25.9367 49.2404L29.5013 52.4854L33.0659 49.2404C45.7263 37.76 54.0846 30.1637 54.0846 20.8958C54.0846 13.2996 48.1355 7.375 40.5638 7.375Z" fill="black"/>
</svg>
