<svg width="63" height="62" viewBox="0 0 63 62" fill="none" xmlns="http://www.w3.org/2000/svg">
<path d="M31.5 5.8125C28.0706 5.8125 25.8018 7.719 24.9009 9.6875C24.2189 11.1794 24.3022 12.2159 24.2944 13.0781C22.8015 14.101 21.4035 15.2558 20.1172 16.5288C17.4086 19.2394 15.9244 23.0969 16 27.1851C16.0387 29.0703 16.4243 30.9632 17.1509 32.8774C17.5132 33.8384 18.1797 35.5028 18.7861 37.3569C19.3906 39.2111 19.875 41.2552 19.875 42.625H17.7554C17.2415 42.6412 16.7551 42.8608 16.4032 43.2356C16.0513 43.6104 15.8627 44.1097 15.8789 44.6235C15.8951 45.1374 16.1147 45.6238 16.4895 45.9757C16.8643 46.3276 17.3636 46.5162 17.8774 46.5L14.4268 51.1616L14.0625 51.646V56.1875H48.9375V51.646L48.5733 51.1616L45.0625 46.5C45.76 46.5078 46.4091 46.1435 46.7656 45.539C46.9366 45.242 47.0266 44.9052 47.0266 44.5625C47.0266 44.2198 46.9366 43.883 46.7656 43.586C46.4091 42.9815 45.7581 42.6172 45.0625 42.625H43.125C43.125 38.2424 40.4009 34.224 37.8569 31.1201C36.4038 29.3434 35.9272 29.0315 34.9507 28.0938C35.2994 27.8903 35.7315 27.6481 35.9814 27.4873C36.2914 27.2916 36.4581 27.1696 36.5239 27.125C37.0703 27.125 37.1091 27.2161 37.6767 27.6694C38.2425 28.1248 39.4011 29.0625 41.0054 29.0625C42.4139 29.0625 43.4427 28.1538 43.9736 27.4873C44.458 26.8751 44.7215 26.4139 44.7602 26.3384C44.9346 26.2551 45.3124 26.133 45.7891 25.7939C46.2657 25.4529 46.8857 24.6954 47 23.8564C47.1143 23.0156 46.8489 22.2812 46.5156 21.5547C46.0235 20.4794 45.1071 19.2471 43.6694 17.7398C42.2318 16.2343 40.3466 14.6378 38.0391 13.6826C37.8647 13.6071 38.0081 13.7214 37.917 13.6245C37.8279 13.5238 37.5547 13.1169 37.0102 12.7139C36.2992 12.1927 34.755 12.1326 33.4375 11.9873V5.8125H31.5ZM29.5625 10.1118V15.5H31.5C34.1408 15.5 34.724 15.8178 34.7085 15.8023C34.7008 15.7945 34.7162 15.8332 35.0127 16.1665C35.4499 16.657 35.9861 17.0492 36.5859 17.3174C38.1359 17.9606 39.6898 19.2161 40.8852 20.4639C42.0051 21.6303 42.7549 22.7889 42.8828 23.0078C42.5728 23.1589 42.2473 23.2655 41.854 23.7344C41.3231 24.3776 41.1352 24.8252 40.9453 25.0674C40.8853 25.1429 40.893 25.1642 40.8852 25.1875C40.7186 25.1642 40.6043 25.0596 40.0967 24.6431C39.4612 24.1277 38.1979 23.25 36.5259 23.25C35.2529 23.25 34.5341 23.8312 33.9219 24.2188C33.3096 24.6063 32.8175 24.8853 32.6509 24.9453L32.5889 25.0054H32.5307C32.1742 25.1565 31.562 25.1875 31.562 25.1875L29.5625 25.1274V28.2158L30.229 28.7583C30.229 28.7583 32.5288 30.7888 34.8306 33.6021C37.1304 36.4211 39.25 40.0462 39.25 42.625H23.75C23.75 40.4531 23.1436 38.1746 22.479 36.146C21.8125 34.1174 21.0259 32.3485 20.7236 31.5444C20.1898 30.1106 19.9028 28.5966 19.875 27.0669C19.8149 23.9553 20.9271 21.1711 22.8413 19.2568C24.1065 17.9916 25.9898 16.4087 27.0186 15.8042L27.9873 15.2597V14.1689C27.9873 13.4521 27.9873 12.2469 28.4136 11.3247C28.6376 10.795 29.0457 10.3642 29.5625 10.1118ZM22.7812 46.5H40.2188L44.5781 52.3125H18.4219L22.7812 46.5Z" fill="black"/>
</svg>
