<svg width="54" height="53" viewBox="0 0 54 53" fill="none" xmlns="http://www.w3.org/2000/svg">
<path d="M27 6.622C22.9002 6.622 18.9683 8.25064 16.0693 11.1496C13.1703 14.0486 11.5417 17.9805 11.5417 22.0803C11.5417 28.4006 15.4769 34.4978 19.7964 39.2214C22.0051 41.6277 24.415 43.8411 27 45.8376C27.3857 45.5417 27.8384 45.181 28.3581 44.7555C30.4335 43.0512 32.3868 41.2035 34.2036 39.2258C38.5231 34.4978 42.4583 28.4028 42.4583 22.0803C42.4583 17.9805 40.8297 14.0486 37.9307 11.1496C35.0317 8.25064 31.0998 6.622 27 6.622ZM27 51.2612L25.7479 50.4L25.7413 50.3956L25.728 50.3845L25.6838 50.3536L25.5182 50.2366L24.922 49.8015C21.9007 47.5309 19.0939 44.988 16.5369 42.2049C12.0231 37.2626 7.125 30.1098 7.125 22.0781C7.125 16.8069 9.21897 11.7517 12.9463 8.02438C16.6735 4.29709 21.7288 2.20312 27 2.20312C32.2712 2.20313 37.3265 4.29709 41.0537 8.02438C44.781 11.7517 46.875 16.8069 46.875 22.0781C46.875 30.1098 41.9769 37.2648 37.4631 42.2005C34.9068 44.9835 32.1008 47.5264 29.0803 49.7971C28.8286 49.9851 28.5746 50.1698 28.3184 50.3514L28.272 50.3823L28.2587 50.3934L28.2543 50.3956L27 51.2612ZM27 17.6637C25.8286 17.6637 24.7052 18.129 23.8769 18.9573C23.0487 19.7856 22.5833 20.909 22.5833 22.0803C22.5833 23.2517 23.0487 24.3751 23.8769 25.2034C24.7052 26.0317 25.8286 26.497 27 26.497C28.1714 26.497 29.2948 26.0317 30.1231 25.2034C30.9513 24.3751 31.4167 23.2517 31.4167 22.0803C31.4167 20.909 30.9513 19.7856 30.1231 18.9573C29.2948 18.129 28.1714 17.6637 27 17.6637ZM18.1667 22.0803C18.1667 19.7376 19.0973 17.4908 20.7539 15.8342C22.4105 14.1777 24.6573 13.247 27 13.247C29.3427 13.247 31.5895 14.1777 33.2461 15.8342C34.9027 17.4908 35.8333 19.7376 35.8333 22.0803C35.8333 24.4231 34.9027 26.6699 33.2461 28.3264C31.5895 29.983 29.3427 30.9137 27 30.9137C24.6573 30.9137 22.4105 29.983 20.7539 28.3264C19.0973 26.6699 18.1667 24.4231 18.1667 22.0803Z" fill="black"/>
</svg>
