<svg width="51" height="51" viewBox="0 0 51 51" fill="none" xmlns="http://www.w3.org/2000/svg">
<path fill-rule="evenodd" clip-rule="evenodd" d="M31.875 14.3438C31.875 16.0345 31.2033 17.656 30.0078 18.8516C28.8123 20.0471 27.1908 20.7187 25.5 20.7188C23.8092 20.7187 22.1877 20.0471 20.9922 18.8516C19.7966 17.656 19.125 16.0345 19.125 14.3438C19.125 12.653 19.7966 11.0315 20.9922 9.83594C22.1877 8.6404 23.8092 7.96875 25.5 7.96875C27.1908 7.96875 28.8123 8.6404 30.0078 9.83594C31.2033 11.0315 31.875 12.653 31.875 14.3438ZM36.6562 14.3438C36.6562 17.3026 35.4809 20.1402 33.3887 22.2324C31.2965 24.3246 28.4588 25.5 25.5 25.5C22.5412 25.5 19.7035 24.3246 17.6113 22.2324C15.5191 20.1402 14.3438 17.3026 14.3438 14.3438C14.3438 11.3849 15.5191 8.54729 17.6113 6.45509C19.7035 4.36289 22.5412 3.1875 25.5 3.1875C28.4588 3.1875 31.2965 4.36289 33.3887 6.45509C35.4809 8.54729 36.6562 11.3849 36.6562 14.3438ZM7.96875 39.8438C7.96875 39.1935 8.67 37.2651 12.1762 35.1932C15.4211 33.2775 20.145 31.875 25.5 31.875C30.855 31.875 35.5789 33.2775 38.8238 35.1932C42.33 37.2651 43.0312 39.1935 43.0312 39.8438C43.0312 40.6891 42.6954 41.4999 42.0977 42.0977C41.4999 42.6954 40.6891 43.0312 39.8438 43.0312H11.1562C10.3109 43.0312 9.50012 42.6954 8.90235 42.0977C8.30457 41.4999 7.96875 40.6891 7.96875 39.8438ZM25.5 27.0938C13.2281 27.0938 3.1875 33.4688 3.1875 39.8438C3.1875 41.9572 4.02706 43.9841 5.52149 45.4785C7.01592 46.9729 9.04281 47.8125 11.1562 47.8125H39.8438C41.9572 47.8125 43.9841 46.9729 45.4785 45.4785C46.9729 43.9841 47.8125 41.9572 47.8125 39.8438C47.8125 33.4688 37.7719 27.0938 25.5 27.0938Z" fill="black"/>
</svg>
