<svg width="56" height="56" viewBox="0 0 56 56" fill="none" xmlns="http://www.w3.org/2000/svg">
<rect x="1.68421" y="1.68421" width="52.6316" height="52.6316" rx="26.3158" fill="#68B62B"/>
<rect x="1.68421" y="1.68421" width="52.6316" height="52.6316" rx="26.3158" stroke="#C0FF71" stroke-width="2.63158"/>
<path d="M21.5108 26.5365C23.2476 29.9498 26.0458 32.736 29.4592 34.4849L32.1127 31.8314C32.4384 31.5058 32.9208 31.3972 33.343 31.5419C34.6939 31.9882 36.1533 32.2294 37.6489 32.2294C38.3123 32.2294 38.8551 32.7722 38.8551 33.4356V37.645C38.8551 38.3084 38.3123 38.8512 37.6489 38.8512C26.3233 38.8512 17.1445 29.6724 17.1445 18.3468C17.1445 17.6834 17.6873 17.1406 18.3507 17.1406H22.5722C23.2355 17.1406 23.7783 17.6834 23.7783 18.3468C23.7783 19.8544 24.0195 21.3018 24.4658 22.6527C24.5985 23.0748 24.502 23.5452 24.1643 23.8829L21.5108 26.5365Z" fill="white"/>
</svg>
