<svg width="68" height="68" viewBox="0 0 68 68" fill="none" xmlns="http://www.w3.org/2000/svg">
<path d="M26.918 44.1533V23.844C26.9184 23.5899 26.9872 23.3406 27.117 23.1222C27.2469 22.9038 27.4332 22.7243 27.6563 22.6027C27.8793 22.481 28.131 22.4216 28.385 22.4306C28.6389 22.4396 28.8858 22.5168 29.0996 22.654L44.8983 32.8058C45.0983 32.934 45.2629 33.1104 45.3769 33.3189C45.491 33.5273 45.5507 33.7611 45.5507 33.9987C45.5507 34.2362 45.491 34.47 45.3769 34.6785C45.2629 34.8869 45.0983 35.0633 44.8983 35.1915L29.0996 45.3462C28.8858 45.4834 28.6389 45.5606 28.385 45.5696C28.131 45.5786 27.8793 45.5192 27.6563 45.3975C27.4332 45.2758 27.2469 45.0964 27.117 44.878C26.9872 44.6596 26.9184 44.4103 26.918 44.1562V44.1533Z" fill="white"/>
<path d="M2.83203 34.0026C2.83203 16.7901 16.7862 2.83594 33.9987 2.83594C51.2112 2.83594 65.1654 16.7901 65.1654 34.0026C65.1654 51.2151 51.2112 65.1693 33.9987 65.1693C16.7862 65.1693 2.83203 51.2151 2.83203 34.0026ZM33.9987 7.08594C26.86 7.08594 20.0136 9.92179 14.9657 14.9696C9.91789 20.0175 7.08203 26.8639 7.08203 34.0026C7.08203 41.1413 9.91789 47.9877 14.9657 53.0356C20.0136 58.0834 26.86 60.9193 33.9987 60.9193C41.1374 60.9193 47.9838 58.0834 53.0317 53.0356C58.0795 47.9877 60.9154 41.1413 60.9154 34.0026C60.9154 26.8639 58.0795 20.0175 53.0317 14.9696C47.9838 9.92179 41.1374 7.08594 33.9987 7.08594Z" fill="white"/>
</svg>
