<svg width="89" height="106" viewBox="0 0 89 106" fill="none" xmlns="http://www.w3.org/2000/svg">
<path d="M85.5582 47.7129L10.1414 1.59282C9.18851 1.00172 8.09388 0.678551 6.97278 0.657363C5.85168 0.636176 4.74562 0.917752 3.77112 1.47243C2.8037 2.00408 1.99782 2.78712 1.43857 3.73885C0.879326 4.69058 0.587479 5.77568 0.593852 6.87954V99.1197C0.587479 100.224 0.879326 101.309 1.43857 102.26C1.99782 103.212 2.8037 103.995 3.77112 104.527C4.74562 105.081 5.85168 105.363 6.97278 105.342C8.09388 105.321 9.18851 104.998 10.1414 104.406L85.5582 58.2863C86.466 57.7345 87.2163 56.9582 87.737 56.0323C88.2577 55.1063 88.5312 54.0619 88.5312 52.9996C88.5312 51.9373 88.2577 50.8929 87.737 49.967C87.2163 49.041 86.466 48.2647 85.5582 47.7129ZM83.3703 54.7113L7.95338 100.837C7.63406 101.033 7.26793 101.14 6.8932 101.146C6.51846 101.153 6.14887 101.058 5.82299 100.873C5.50516 100.704 5.2396 100.451 5.05508 100.142C4.87055 99.8333 4.77408 99.4797 4.77612 99.1197V6.87954C4.77408 6.51957 4.87055 6.1659 5.05508 5.85682C5.2396 5.54774 5.50516 5.29502 5.82299 5.12602C6.14887 4.9409 6.51846 4.84664 6.8932 4.85308C7.26793 4.85953 7.63406 4.96644 7.95338 5.16266L83.3703 51.288C83.6676 51.464 83.9139 51.7144 84.085 52.0145C84.2561 52.3146 84.3461 52.6541 84.3461 52.9996C84.3461 53.3451 84.2561 53.6846 84.085 53.9848C83.9139 54.2849 83.6676 54.5353 83.3703 54.7113Z" fill="white"/>
</svg>
