<svg width="40" height="41" viewBox="0 0 40 41" fill="none" xmlns="http://www.w3.org/2000/svg">
<path d="M32.2509 28.4485L24.6357 24.8374C25.6516 24.3281 29.6193 24.1667 29.9474 23.2711C29.9474 23.2711 28.3794 20.8644 27.9966 17.7385C27.8479 16.5253 27.5932 14.9332 27.3404 12.6911C26.93 9.05412 23.871 6.5 20.007 6.5H19.993C16.129 6.5 13.07 9.05412 12.6601 12.6906C12.4072 14.9328 12.1526 16.5249 12.0038 17.7381C11.621 20.8644 10.053 23.2707 10.053 23.2707C10.3811 24.1663 14.3484 24.3277 15.3647 24.8369L7.74913 28.4485C7.74913 28.4485 6 29.0627 6 30.5122V32.8235C6 33.7908 6.78269 34.5 7.74913 34.5H32.2509C33.2173 34.5 34 33.7908 34 32.8235V30.5122C34 29.0627 32.2509 28.4485 32.2509 28.4485ZM7.74997 32.75V30.5122C7.74997 30.419 8.08072 30.195 8.34979 30.0926C8.40795 30.0721 8.44385 30.0559 8.49854 30.0292L16.1136 26.4181C16.7187 26.1319 17.1068 25.5243 17.1142 24.8553C17.1212 24.1864 16.7467 23.5708 16.1486 23.2712C15.5558 22.9737 14.7723 22.8267 13.5442 22.614C13.2528 22.5628 12.8547 22.4911 12.4684 22.4141C12.9693 21.2901 13.5228 19.7182 13.7407 17.9398C13.7945 17.497 13.8636 16.9987 13.9406 16.447C14.0732 15.5081 14.2372 14.3177 14.3987 12.8862C14.704 10.1828 17.004 8.24997 19.993 8.24997H20.007C22.996 8.24997 25.2963 10.1828 25.6013 12.8866C25.7627 14.3177 25.9268 15.5085 26.0594 16.4474C26.1364 16.9991 26.2055 17.4974 26.2593 17.9402C26.4772 19.7182 27.0311 21.2901 27.5316 22.4145C27.1452 22.4915 26.7471 22.5633 26.4557 22.6144C25.2277 22.8271 24.4441 22.9741 23.8513 23.2716C23.2532 23.5717 22.8787 24.1868 22.8857 24.8557C22.8936 25.5247 23.2812 26.1323 23.8863 26.4185L31.5014 30.0296C31.5561 30.0563 31.592 30.0725 31.6502 30.093C31.9192 30.1954 32.2106 30.4194 32.25 30.5126L32.2508 32.75L7.74997 32.75Z" fill="white"/>
</svg>
