<svg width="40" height="41" viewBox="0 0 40 41" fill="none" xmlns="http://www.w3.org/2000/svg">
<path d="M20 4.25C16.7861 4.25 13.6443 5.20305 10.972 6.98862C8.29969 8.77419 6.21689 11.3121 4.98696 14.2814C3.75704 17.2507 3.43524 20.518 4.06225 23.6702C4.68926 26.8224 6.23692 29.7179 8.50952 31.9905C10.7821 34.2631 13.6776 35.8108 16.8298 36.4378C19.982 37.0648 23.2493 36.743 26.2186 35.513C29.1879 34.2831 31.7258 32.2003 33.5114 29.528C35.297 26.8557 36.25 23.7139 36.25 20.5C36.2455 16.1916 34.5319 12.061 31.4855 9.01454C28.439 5.96806 24.3084 4.25455 20 4.25ZM20 34.25C17.2805 34.25 14.6221 33.4436 12.3609 31.9327C10.0997 30.4218 8.33737 28.2744 7.29666 25.7619C6.25596 23.2494 5.98366 20.4847 6.51421 17.8175C7.04476 15.1503 8.35432 12.7003 10.2773 10.7773C12.2003 8.85431 14.6503 7.54475 17.3175 7.0142C19.9848 6.48366 22.7494 6.75595 25.2619 7.79666C27.7744 8.83736 29.9218 10.5997 31.4327 12.8609C32.9436 15.1221 33.75 17.7805 33.75 20.5C33.7459 24.1455 32.2959 27.6404 29.7182 30.2182C27.1404 32.7959 23.6455 34.2459 20 34.25Z" fill="white"/>
</svg>
