<svg width="43" height="43" viewBox="0 0 43 43" fill="none" xmlns="http://www.w3.org/2000/svg">
<path d="M33.8701 2.6875H23.5459C23.2249 2.68727 22.9169 2.81409 22.6892 3.04024L2.04922 23.6752C1.5974 24.1292 1.34375 24.7437 1.34375 25.3843C1.34375 26.0248 1.5974 26.6393 2.04922 27.0934L11.8754 36.9195C12.3296 37.3714 12.9442 37.6251 13.5849 37.6251C14.2256 37.6251 14.8402 37.3714 15.2944 36.9195L35.9285 16.293C36.1547 16.0653 36.2815 15.7573 36.2813 15.4363V5.10625C36.2828 4.78882 36.2216 4.47422 36.101 4.18055C35.9805 3.88689 35.8031 3.61997 35.579 3.39516C35.3548 3.17034 35.0885 2.99208 34.7952 2.87063C34.5019 2.74918 34.1875 2.68695 33.8701 2.6875Z" stroke="white" stroke-width="2.6875" stroke-linecap="round" stroke-linejoin="round"/>
<path d="M29.5625 12.0938C29.031 12.0938 28.5114 11.9361 28.0694 11.6408C27.6274 11.3455 27.283 10.9258 27.0796 10.4347C26.8762 9.94364 26.8229 9.40327 26.9266 8.88195C27.0303 8.36062 27.2863 7.88176 27.6622 7.5059C28.038 7.13005 28.5169 6.87409 29.0382 6.77039C29.5595 6.66669 30.0999 6.71991 30.591 6.92332C31.082 7.12674 31.5018 7.4712 31.7971 7.91316C32.0924 8.35511 32.25 8.87471 32.25 9.40625C32.25 10.119 31.9669 10.8026 31.4629 11.3066C30.9588 11.8106 30.2753 12.0938 29.5625 12.0938Z" fill="white"/>
<path d="M19.3164 40.3125L41.3203 18.3086C41.4297 18.1983 41.5159 18.0671 41.5736 17.9228C41.6313 17.7785 41.6594 17.6241 41.6562 17.4688V6.71875" stroke="white" stroke-width="2.6875" stroke-linecap="round" stroke-linejoin="round"/>
</svg>
