<svg width="40" height="41" viewBox="0 0 40 41" fill="none" xmlns="http://www.w3.org/2000/svg">
<path d="M12 13.5C12 13.2373 12.1035 12.9851 12.288 12.798L12.298 12.788C12.4851 12.6035 12.7373 12.5 13 12.5H17C17.2652 12.5 17.5196 12.6054 17.7071 12.7929C17.8946 12.9804 18 13.2348 18 13.5C18 13.7652 17.8946 14.0196 17.7071 14.2071C17.5196 14.3946 17.2652 14.5 17 14.5H15.414L17.708 16.792C17.8958 16.9798 18.0013 17.2344 18.0013 17.5C18.0013 17.7656 17.8958 18.0202 17.708 18.208C17.5202 18.3958 17.2656 18.5013 17 18.5013C16.7344 18.5013 16.4798 18.3958 16.292 18.208L14 15.914V17.5C14 17.7652 13.8946 18.0196 13.7071 18.2071C13.5196 18.3946 13.2652 18.5 13 18.5C12.7348 18.5 12.4804 18.3946 12.2929 18.2071C12.1054 18.0196 12 17.7652 12 17.5V13.5ZM12.076 27.882C12.0259 27.7609 12.0001 27.6311 12 27.5V23.5C12 23.2348 12.1054 22.9804 12.2929 22.7929C12.4804 22.6054 12.7348 22.5 13 22.5C13.2652 22.5 13.5196 22.6054 13.7071 22.7929C13.8946 22.9804 14 23.2348 14 23.5V25.086L16.292 22.792C16.385 22.699 16.4954 22.6253 16.6168 22.575C16.7383 22.5246 16.8685 22.4987 17 22.4987C17.1315 22.4987 17.2617 22.5246 17.3832 22.575C17.5046 22.6253 17.615 22.699 17.708 22.792C17.801 22.885 17.8747 22.9954 17.925 23.1168C17.9754 23.2383 18.0013 23.3685 18.0013 23.5C18.0013 23.6315 17.9754 23.7617 17.925 23.8832C17.8747 24.0046 17.801 24.115 17.708 24.208L15.414 26.5H17C17.2652 26.5 17.5196 26.6054 17.7071 26.7929C17.8946 26.9804 18 27.2348 18 27.5C18 27.7652 17.8946 28.0196 17.7071 28.2071C17.5196 28.3946 17.2652 28.5 17 28.5H12.994C12.7968 28.4992 12.6042 28.4401 12.4406 28.3301C12.2769 28.2201 12.1513 28.0642 12.076 27.882ZM27.38 12.576C27.4973 12.624 27.604 12.6947 27.7 12.788L27.71 12.798C27.8952 12.9848 27.9994 13.237 28 13.5V17.5C28 17.7652 27.8946 18.0196 27.7071 18.2071C27.5196 18.3946 27.2652 18.5 27 18.5C26.7348 18.5 26.4804 18.3946 26.2929 18.2071C26.1054 18.0196 26 17.7652 26 17.5V15.914L23.708 18.208C23.5202 18.3958 23.2656 18.5013 23 18.5013C22.7344 18.5013 22.4798 18.3958 22.292 18.208C22.1042 18.0202 21.9987 17.7656 21.9987 17.5C21.9987 17.2344 22.1042 16.9798 22.292 16.792L24.586 14.5H23C22.7348 14.5 22.4804 14.3946 22.2929 14.2071C22.1054 14.0196 22 13.7652 22 13.5C22 13.2348 22.1054 12.9804 22.2929 12.7929C22.4804 12.6054 22.7348 12.5 23 12.5H27C27.1311 12.5001 27.2609 12.5259 27.382 12.576M27.702 28.212C27.5149 28.3965 27.2627 28.5 27 28.5H23C22.7348 28.5 22.4804 28.3946 22.2929 28.2071C22.1054 28.0196 22 27.7652 22 27.5C22 27.2348 22.1054 26.9804 22.2929 26.7929C22.4804 26.6054 22.7348 26.5 23 26.5H24.586L22.292 24.208C22.199 24.115 22.1253 24.0046 22.075 23.8832C22.0246 23.7617 21.9987 23.6315 21.9987 23.5C21.9987 23.3685 22.0246 23.2383 22.075 23.1168C22.1253 22.9954 22.199 22.885 22.292 22.792C22.385 22.699 22.4954 22.6253 22.6168 22.575C22.7383 22.5246 22.8685 22.4987 23 22.4987C23.1315 22.4987 23.2617 22.5246 23.3832 22.575C23.5046 22.6253 23.615 22.699 23.708 22.792L26 25.086V23.5C26 23.2348 26.1054 22.9804 26.2929 22.7929C26.4804 22.6054 26.7348 22.5 27 22.5C27.2652 22.5 27.5196 22.6054 27.7071 22.7929C27.8946 22.9804 28 23.2348 28 23.5V27.5C28 27.7627 27.8965 28.0149 27.712 28.202L27.702 28.212ZM6 10.5C6 9.43913 6.42143 8.42172 7.17157 7.67157C7.92172 6.92143 8.93913 6.5 10 6.5H30C31.0609 6.5 32.0783 6.92143 32.8284 7.67157C33.5786 8.42172 34 9.43913 34 10.5V30.5C34 31.5609 33.5786 32.5783 32.8284 33.3284C32.0783 34.0786 31.0609 34.5 30 34.5H10C8.93913 34.5 7.92172 34.0786 7.17157 33.3284C6.42143 32.5783 6 31.5609 6 30.5V10.5ZM10 8.5C9.46957 8.5 8.96086 8.71071 8.58579 9.08579C8.21071 9.46086 8 9.96957 8 10.5V30.5C8 31.0304 8.21071 31.5391 8.58579 31.9142C8.96086 32.2893 9.46957 32.5 10 32.5H30C30.5304 32.5 31.0391 32.2893 31.4142 31.9142C31.7893 31.5391 32 31.0304 32 30.5V10.5C32 9.96957 31.7893 9.46086 31.4142 9.08579C31.0391 8.71071 30.5304 8.5 30 8.5H10Z" fill="white"/>
</svg>
