<svg width="36" height="27" viewBox="0 0 36 27" fill="none" xmlns="http://www.w3.org/2000/svg">
<g clip-path="url(#clip0_572_6)">
<path fill-rule="evenodd" clip-rule="evenodd" d="M0 0V27H36V0H0Z" fill="#2E42A5"/>
<mask id="mask0_572_6" style="mask-type:luminance" maskUnits="userSpaceOnUse" x="0" y="0" width="36" height="27">
<path fill-rule="evenodd" clip-rule="evenodd" d="M0 0V27H36V0H0Z" fill="white"/>
</mask>
<g mask="url(#mask0_572_6)">
<path d="M-4.00781 25.0695L3.91444 28.4208L36.1794 3.64159L40.3588 -1.33766L31.8876 -2.45703L18.7273 8.22034L8.13431 15.4158L-4.00781 25.0695Z" fill="white"/>
<path d="M-2.92578 27.4166L1.11184 29.3606L38.8567 -1.80078H33.1901L-2.92578 27.4166Z" fill="#F50100"/>
<path d="M40.0073 25.0695L32.085 28.4208L-0.18 3.64159L-4.35938 -1.33766L4.11187 -2.45703L17.2721 8.22034L27.8651 15.4158L40.0073 25.0695Z" fill="white"/>
<path d="M39.7377 26.7552L35.7012 28.6992L19.6294 15.3567L14.8639 13.8672L-4.76172 -1.32031H0.906031L20.5193 13.5072L25.7292 15.2937L39.7377 26.7552Z" fill="#F50100"/>
<path fill-rule="evenodd" clip-rule="evenodd" d="M22.25 -2.25H13.7495V9H-2.21875V18H13.7495V29.25H22.25V18H38.2812V9H22.25V-2.25Z" fill="#F50100"/>
<mask id="mask1_572_6" style="mask-type:luminance" maskUnits="userSpaceOnUse" x="-3" y="-3" width="42" height="33">
<path fill-rule="evenodd" clip-rule="evenodd" d="M22.248 -2.25H13.7475V9H-2.2207V18H13.7475V29.25H22.248V18H38.2793V9H22.248V-2.25Z" fill="white"/>
</mask>
<g mask="url(#mask1_572_6)">
<path d="M13.7475 -2.25V-4.5H11.4975V-2.25H13.7475ZM22.248 -2.25H24.498V-4.5H22.248V-2.25ZM13.7475 9V11.25H15.9975V9H13.7475ZM-2.2207 9V6.75H-4.4707V9H-2.2207ZM-2.2207 18H-4.4707V20.25H-2.2207V18ZM13.7475 18H15.9975V15.75H13.7475V18ZM13.7475 29.25H11.4975V31.5H13.7475V29.25ZM22.248 29.25V31.5H24.498V29.25H22.248ZM22.248 18V15.75H19.998V18H22.248ZM38.2793 18V20.25H40.5293V18H38.2793ZM38.2793 9H40.5293V6.75H38.2793V9ZM22.248 9H19.998V11.25H22.248V9ZM13.7475 0H22.248V-4.5H13.7475V0ZM15.9975 9V-2.25H11.4975V9H15.9975ZM-2.2207 11.25H13.7475V6.75H-2.2207V11.25ZM0.0292969 18V9H-4.4707V18H0.0292969ZM13.7475 15.75H-2.2207V20.25H13.7475V15.75ZM15.9975 29.25V18H11.4975V29.25H15.9975ZM22.248 27H13.7475V31.5H22.248V27ZM19.998 18V29.25H24.498V18H19.998ZM38.2793 15.75H22.248V20.25H38.2793V15.75ZM36.0293 9V18H40.5293V9H36.0293ZM22.248 11.25H38.2793V6.75H22.248V11.25ZM19.998 -2.25V9H24.498V-2.25H19.998Z" fill="white"/>
</g>
</g>
</g>
<defs>
<clipPath id="clip0_572_6">
<rect width="36" height="27" rx="3.375" fill="white"/>
</clipPath>
</defs>
</svg>
